<?xml version="1.0" standalone="no"?>
<!DOCTYPE svg PUBLIC "-//W3C//DTD SVG 20010904//EN"
 "http://www.w3.org/TR/2001/REC-SVG-20010904/DTD/svg10.dtd">
<svg version="1.0" xmlns="http://www.w3.org/2000/svg"
 width="288.000000pt" height="210.000000pt" viewBox="0 0 288.000000 210.000000"
 preserveAspectRatio="xMidYMid meet">

<g transform="translate(0.000000,210.000000) scale(0.100000,-0.100000)"
fill="#000000" stroke="none">
<path d="M1265 1954 c-149 -33 -303 -111 -410 -207 l-40 -36 257 -1 c219 0
259 -2 272 -16 12 -12 13 -20 6 -35 -10 -18 -24 -19 -298 -19 -216 0 -292 -3
-304 -12 -16 -13 -78 -102 -78 -112 0 -3 351 -6 780 -6 429 0 780 3 780 8 0
18 -75 116 -137 179 -111 112 -259 201 -405 244 -99 29 -322 36 -423 13z"/>
<path d="M2310 1431 c-5 -11 -10 -36 -10 -55 l0 -36 -272 0 c-1022 -2 -1338
-6 -1349 -17 -32 -32 24 -34 858 -31 l828 3 3 63 c3 64 -7 92 -34 92 -7 0 -18
-9 -24 -19z"/>
<path d="M335 1357 c-3 -7 -4 -131 -3 -276 3 -242 4 -265 21 -275 15 -9 21 -7
33 8 11 16 14 68 14 272 0 139 -3 259 -6 268 -7 19 -53 21 -59 3z"/>
<path d="M2506 1354 c-3 -9 -6 -132 -6 -274 0 -223 2 -259 16 -271 11 -9 20
-10 32 -2 15 9 17 40 20 264 1 140 0 264 -3 277 -6 26 -49 31 -59 6z"/>
<path d="M227 1233 c-10 -33 0 -304 11 -315 6 -6 18 -8 27 -5 13 6 15 28 13
169 -3 159 -4 163 -25 166 -14 2 -23 -3 -26 -15z"/>
<path d="M2627 1243 c-4 -3 -7 -75 -7 -158 0 -128 3 -155 16 -166 14 -11 18
-10 30 6 10 14 14 55 14 156 0 76 -3 144 -6 153 -6 16 -35 22 -47 9z"/>
<path d="M494 1217 c-2 -7 -3 -82 -2 -167 l3 -155 35 0 35 0 5 82 c3 45 9 85
13 90 5 4 26 -12 48 -37 l39 -45 44 48 c24 26 47 47 50 47 3 0 7 -42 8 -92 l3
-93 31 -3 c51 -5 55 9 52 179 l-3 154 -35 3 c-32 3 -40 -2 -92 -60 l-58 -63
-56 63 c-44 49 -62 62 -85 62 -16 0 -32 -6 -35 -13z"/>
<path d="M934 1217 c-2 -7 -3 -82 -2 -167 l3 -155 83 -3 c69 -2 83 0 89 14 11
28 -11 49 -58 54 -41 5 -44 7 -44 35 0 28 3 30 45 35 42 5 45 7 45 35 0 28 -3
30 -45 35 -40 4 -45 8 -45 30 0 22 5 26 39 30 42 5 63 27 53 54 -5 13 -21 16
-82 16 -53 0 -77 -4 -81 -13z"/>
<path d="M1180 1214 c-19 -22 -1 -47 36 -54 l29 -5 3 -120 c2 -93 6 -123 19
-137 9 -10 21 -18 28 -18 7 0 19 8 28 18 13 14 17 44 19 137 l3 120 40 5 c37
5 40 8 40 35 l0 30 -116 3 c-97 2 -118 0 -129 -14z"/>
<path d="M1542 1218 c-17 -22 -113 -289 -110 -306 2 -10 15 -18 30 -20 20 -2
31 4 44 23 16 25 20 26 102 23 l85 -3 15 -43 c18 -54 47 -72 73 -45 19 19 19
21 -26 138 -26 66 -53 140 -62 165 -22 67 -38 80 -93 80 -26 0 -52 -6 -58 -12z
m75 -106 c11 -7 43 -83 43 -103 0 -5 -27 -9 -61 -9 -33 0 -59 4 -57 8 2 4 12
31 22 60 20 51 29 59 53 44z"/>
<path d="M1947 1214 c-9 -9 -9 -426 -1 -448 7 -19 49 -21 61 -3 4 6 8 62 8
122 l0 110 50 5 c42 4 50 8 53 28 3 20 -1 22 -42 22 -52 0 -69 20 -64 73 l3
32 80 3 c111 3 127 8 123 35 -3 21 -7 22 -134 25 -71 1 -133 -1 -137 -4z"/>
<path d="M2307 1214 c-4 -4 -7 -72 -7 -150 0 -116 3 -145 16 -158 19 -20 28
-20 43 -2 8 9 11 61 9 162 l-3 149 -25 3 c-14 2 -29 0 -33 -4z"/>
<path d="M143 1143 c-20 -7 -17 -112 3 -120 22 -8 34 14 34 63 0 42 -15 65
-37 57z"/>
<path d="M2731 1136 c-7 -8 -11 -36 -9 -63 3 -41 6 -48 26 -51 20 -3 22 0 22
51 0 60 -18 89 -39 63z"/>
<path d="M520 800 c0 -20 5 -20 592 -18 555 3 593 4 596 21 3 16 -30 17 -592
17 -590 0 -596 0 -596 -20z"/>
<path d="M2154 809 c-13 -22 16 -30 107 -27 80 3 94 6 97 21 3 15 -7 17 -97
17 -61 0 -102 -4 -107 -11z"/>
<path d="M675 580 c8 -16 29 -46 46 -65 l31 -35 299 0 299 0 0 -25 0 -25 -276
0 c-192 0 -273 -3 -269 -11 11 -17 145 -113 205 -147 145 -82 368 -124 543
-103 214 25 399 114 550 266 58 59 127 147 127 163 0 9 -197 12 -785 12 l-786
0 16 -30z"/>
</g>
</svg>
